<svg width="26" height="25" viewBox="0 0 26 25" fill="none" xmlns="http://www.w3.org/2000/svg">
<rect width="25.3106" height="24.0451" transform="translate(25.3106 24.0451) rotate(-180)" fill="black"/>
<path d="M7.38267 13.0247L7.38267 14.0266L8.43728 14.0266L8.43728 15.0284L10.5465 15.0284L10.5465 17.0322L12.6557 17.0322L12.6557 19.036L14.7649 19.036L14.7649 21.0397L16.8742 21.0397L16.8742 22.0416L18.9834 22.0416L18.9834 19.036L16.8742 19.036L16.8742 17.0322L14.7649 17.0322L14.7649 15.0284L12.6557 15.0284L12.6557 13.0247L10.5465 13.0247L10.5465 11.0209L12.6557 11.0209L12.6557 9.01718L14.7649 9.01718L14.7649 7.01342L16.8742 7.01342L16.8742 5.00966L18.9834 5.00967L18.9834 2.00403L16.8742 2.00403L16.8742 3.00591L14.7649 3.00591L14.7649 5.00966L12.6557 5.00966L12.6557 6.01154L12.6557 7.01342L10.5465 7.01342L10.5465 8.0153L10.5465 9.01718L8.43728 9.01718L8.43728 10.0191L7.38267 10.0191L7.38267 11.0209L6.32807 11.0209L6.32807 12.0228L6.32807 13.0247L7.38267 13.0247Z" fill="white"/>
</svg>
